<?xml version="1.0" standalone="no"?>
<!DOCTYPE svg PUBLIC "-//W3C//DTD SVG 20010904//EN"
 "http://www.w3.org/TR/2001/REC-SVG-20010904/DTD/svg10.dtd">
<svg version="1.0" xmlns="http://www.w3.org/2000/svg"
 width="1001.000000pt" height="344.000000pt" viewBox="0 0 1001.000000 344.000000"
 preserveAspectRatio="xMidYMid meet">

<g transform="translate(0.000000,344.000000) scale(0.100000,-0.100000)"
fill="#000000" stroke="none">
<path d="M8207 3430 c-522 -49 -973 -354 -1206 -819 -118 -234 -176 -534 -152
-782 21 -214 60 -350 156 -544 97 -196 228 -358 402 -498 68 -55 227 -157 245
-157 4 0 8 159 8 354 l0 354 79 -35 c127 -54 258 -84 403 -90 252 -11 387 46
460 195 31 63 33 72 33 177 0 94 -4 118 -24 162 -80 178 -314 240 -669 178
l-92 -17 -75 44 -75 43 5 50 c3 28 19 226 35 440 16 215 33 416 36 448 l6 57
529 0 530 0 -7 178 c-4 97 -7 178 -8 179 -1 1 -42 13 -91 28 -168 48 -370 69
-528 55z"/>
<path d="M4967 2990 c-73 -58 -48 -230 34 -230 37 0 65 28 79 80 28 103 -47
202 -113 150z"/>
<path d="M555 2968 c-3 -7 -6 -497 -7 -1088 l-3 -1075 -22 -53 c-46 -113 -117
-166 -244 -181 -68 -9 -224 0 -263 15 -14 5 -16 -2 -16 -49 l0 -55 69 -16 c88
-20 210 -20 284 -1 161 42 256 137 304 305 17 61 18 128 18 1135 l0 1070 -58
3 c-40 2 -59 -1 -62 -10z"/>
<path d="M1234 2967 c-3 -8 -4 -336 -2 -728 4 -700 4 -716 26 -794 37 -136 85
-220 176 -311 142 -142 290 -196 536 -197 171 -1 274 20 398 80 108 53 234
178 284 283 75 155 72 111 75 938 l4 742 -60 0 -60 0 -3 -732 c-4 -807 -2
-774 -68 -916 -61 -130 -205 -238 -365 -273 -86 -19 -303 -17 -389 4 -208 51
-342 182 -403 392 -15 54 -18 137 -23 790 l-5 730 -58 3 c-42 2 -59 -1 -63
-11z"/>
<path d="M5631 2663 c-17 -87 -35 -165 -40 -173 -4 -8 -56 -28 -115 -45 l-106
-30 0 -32 0 -33 110 0 110 0 0 -504 c0 -306 4 -535 11 -582 23 -170 89 -261
224 -309 62 -22 245 -24 320 -4 l50 14 3 47 3 48 -33 -8 c-18 -4 -89 -7 -158
-7 -111 0 -130 3 -167 23 -53 28 -87 78 -108 157 -13 50 -15 144 -15 592 l0
533 220 0 220 0 0 50 0 50 -220 0 -220 0 0 185 0 185 -29 0 -28 0 -32 -157z"/>
<path d="M3755 2465 c-133 -29 -223 -79 -297 -165 -24 -28 -48 -50 -54 -50 -7
0 -17 39 -24 100 l-12 100 -49 0 -49 0 0 -745 0 -745 59 0 60 0 4 513 c3 453
5 519 21 572 70 238 222 332 523 323 127 -3 133 -5 199 -38 82 -42 124 -93
156 -188 22 -66 22 -78 26 -624 l3 -558 60 0 59 0 0 519 c0 421 -3 535 -15
607 -37 208 -150 335 -337 379 -77 18 -251 18 -333 0z"/>
<path d="M4940 1705 l0 -746 63 3 62 3 3 743 2 742 -65 0 -65 0 0 -745z"/>
</g>
</svg>
