<?xml version="1.0" encoding="UTF-8"?>
<!DOCTYPE svg PUBLIC "-//W3C//DTD SVG 1.1//EN" "http://www.w3.org/Graphics/SVG/1.1/DTD/svg11.dtd">
<svg xmlns="http://www.w3.org/2000/svg" version="1.1" width="400px" height="400px" style="shape-rendering:geometricPrecision; text-rendering:geometricPrecision; image-rendering:optimizeQuality; fill-rule:evenodd; clip-rule:evenodd" xmlns:xlink="http://www.w3.org/1999/xlink">
<g><path style="opacity:0.576" fill="#b4d49b" d="M 204.5,77.5 C 207.428,77.5651 210.095,78.2318 212.5,79.5C 209.505,79.7062 206.838,79.0395 204.5,77.5 Z"/></g>
<g><path style="opacity:1" fill="#6cb23d" d="M 223.5,82.5 C 224.568,83.4345 225.901,83.7678 227.5,83.5C 228.058,84.7899 229.058,85.6232 230.5,86C 234.486,86.4988 238.486,86.6655 242.5,86.5C 244.242,87.9573 246.242,89.124 248.5,90C 256.992,91.5636 265.325,93.3969 273.5,95.5C 275.5,95.5 277.5,95.5 279.5,95.5C 280.287,97.1042 281.62,97.7709 283.5,97.5C 284.209,98.404 285.209,98.7373 286.5,98.5C 286.5,120.5 286.5,142.5 286.5,164.5C 271.657,164.171 256.99,164.504 242.5,165.5C 241.521,168.625 241.187,171.958 241.5,175.5C 256.324,176.496 271.324,176.829 286.5,176.5C 286.5,192.833 286.5,209.167 286.5,225.5C 286.5,225.833 286.5,226.167 286.5,226.5C 283.797,230.282 282.464,234.615 282.5,239.5C 280.496,240.673 278.996,242.34 278,244.5C 277.195,242.099 276.362,242.266 275.5,245C 276.516,245.519 277.182,246.353 277.5,247.5C 275.681,250.215 274.681,253.215 274.5,256.5C 273.849,255.909 273.182,255.243 272.5,254.5C 271.548,256.045 271.215,257.712 271.5,259.5C 270.5,259.5 269.5,259.5 268.5,259.5C 268.635,262.417 267.968,265.084 266.5,267.5C 264.173,267.753 262.173,267.086 260.5,265.5C 260.894,267.424 260.227,269.257 258.5,271C 258.957,271.414 259.291,271.914 259.5,272.5C 257.157,273.725 255.323,273.059 254,270.5C 253.25,271.126 252.416,271.626 251.5,272C 253.158,273.663 255.158,274.496 257.5,274.5C 257.5,276.167 257.5,277.833 257.5,279.5C 257.167,280.5 256.5,281.167 255.5,281.5C 251.515,281.44 249.848,283.44 250.5,287.5C 247.564,288.406 244.564,289.072 241.5,289.5C 241.5,291.167 241.5,292.833 241.5,294.5C 238.003,293.295 235.003,293.795 232.5,296C 233.973,296.71 234.64,297.876 234.5,299.5C 230.666,301.919 226.999,304.586 223.5,307.5C 222.167,307.5 220.833,307.5 219.5,307.5C 219.5,308.5 219.5,309.5 219.5,310.5C 218.178,310.67 217.011,310.337 216,309.5C 214.697,314.347 211.697,315.68 207,313.5C 204.129,314.965 202.629,317.298 202.5,320.5C 198.616,320.576 194.95,319.91 191.5,318.5C 190.191,315.549 187.857,314.216 184.5,314.5C 184.027,313.094 183.027,312.427 181.5,312.5C 178.289,307.312 173.622,303.978 167.5,302.5C 166.415,300.413 164.749,299.08 162.5,298.5C 161.08,295.412 158.747,293.412 155.5,292.5C 154.738,290.738 153.404,289.738 151.5,289.5C 150.5,289.167 149.833,288.5 149.5,287.5C 149.167,284.5 147.5,282.833 144.5,282.5C 143.425,277.975 140.758,274.975 136.5,273.5C 136.5,273.167 136.5,272.833 136.5,272.5C 135.496,268.981 133.663,265.981 131,263.5C 129.534,259.573 128.367,255.573 127.5,251.5C 126.178,251.67 125.011,251.337 124,250.5C 122.908,247.956 122.241,245.289 122,242.5C 121.23,243.598 120.397,243.598 119.5,242.5C 119.167,241.5 118.5,240.833 117.5,240.5C 117.946,237.99 117.28,235.99 115.5,234.5C 115.075,226.328 114.075,218.328 112.5,210.5C 112.5,199.167 112.5,187.833 112.5,176.5C 127.676,176.829 142.676,176.496 157.5,175.5C 158.833,172.167 158.833,168.833 157.5,165.5C 142.676,164.504 127.676,164.171 112.5,164.5C 112.5,142.5 112.5,120.5 112.5,98.5C 115.649,98.5848 118.316,97.5848 120.5,95.5C 124.981,95.5745 129.314,94.9079 133.5,93.5C 139.38,92.8561 144.713,91.1894 149.5,88.5C 155.264,88.3811 160.93,87.5477 166.5,86C 168.32,85.7996 169.653,84.9663 170.5,83.5C 177.547,82.779 184.547,81.779 191.5,80.5C 194.406,80.0843 197.239,79.4176 200,78.5C 207.686,80.3591 215.52,81.6925 223.5,82.5 Z M 204.5,139.5 C 211.84,141.002 218.173,144.336 223.5,149.5C 232.309,160.979 233.643,173.312 227.5,186.5C 226.094,186.973 225.427,187.973 225.5,189.5C 224.5,189.833 223.833,190.5 223.5,191.5C 221.5,192.833 219.833,194.5 218.5,196.5C 216.181,196.992 214.181,197.992 212.5,199.5C 204.167,202.167 195.833,202.167 187.5,199.5C 186.71,198.599 185.71,197.932 184.5,197.5C 183.167,196.833 181.833,196.167 180.5,195.5C 178.833,193.167 176.833,191.167 174.5,189.5C 172.814,186.128 171.147,182.795 169.5,179.5C 168.771,174.87 168.437,170.203 168.5,165.5C 169.612,163.401 170.279,161.067 170.5,158.5C 173.095,153.665 176.429,149.331 180.5,145.5C 187.732,140.692 195.732,138.692 204.5,139.5 Z M 202.5,159.5 C 202.475,163.284 200.808,164.284 197.5,162.5C 197.525,158.716 199.192,157.716 202.5,159.5 Z"/></g>
<g><path style="opacity:1" fill="#95bf77" d="M 195.5,77.5 C 193.924,78.1429 192.59,79.1429 191.5,80.5C 184.547,81.779 177.547,82.779 170.5,83.5C 178.54,80.7411 186.873,78.7411 195.5,77.5 Z"/></g>
<g><path style="opacity:1" fill="#8aba69" d="M 204.5,77.5 C 206.838,79.0395 209.505,79.7062 212.5,79.5C 216.262,79.6911 219.929,80.3578 223.5,81.5C 223.5,81.8333 223.5,82.1667 223.5,82.5C 215.52,81.6925 207.686,80.3591 200,78.5C 197.239,79.4176 194.406,80.0843 191.5,80.5C 192.59,79.1429 193.924,78.1429 195.5,77.5C 198.5,76.1667 201.5,76.1667 204.5,77.5 Z"/></g>
<g><path style="opacity:0.976" fill="#a8ce99" d="M 223.5,81.5 C 225.698,81.8751 227.698,82.5418 229.5,83.5C 228.833,83.5 228.167,83.5 227.5,83.5C 225.901,83.7678 224.568,83.4345 223.5,82.5C 223.5,82.1667 223.5,81.8333 223.5,81.5 Z"/></g>
<g><path style="opacity:1" fill="#91bd6e" d="M 227.5,83.5 C 228.167,83.5 228.833,83.5 229.5,83.5C 234.052,84.0566 238.385,85.0566 242.5,86.5C 238.486,86.6655 234.486,86.4988 230.5,86C 229.058,85.6232 228.058,84.7899 227.5,83.5 Z"/></g>
<g><path style="opacity:1" fill="#91c071" d="M 170.5,83.5 C 169.653,84.9663 168.32,85.7996 166.5,86C 160.93,87.5477 155.264,88.3811 149.5,88.5C 156.207,86.0745 163.207,84.4078 170.5,83.5 Z"/></g>
<g><path style="opacity:1" fill="#93c072" d="M 242.5,86.5 C 252.872,88.6763 263.205,91.0096 273.5,93.5C 273.5,94.1667 273.5,94.8333 273.5,95.5C 265.325,93.3969 256.992,91.5636 248.5,90C 246.242,89.124 244.242,87.9573 242.5,86.5 Z"/></g>
<g><path style="opacity:1" fill="#84b863" d="M 149.5,88.5 C 144.713,91.1894 139.38,92.8561 133.5,93.5C 134.5,92.8333 135.5,92.1667 136.5,91.5C 140.615,90.0566 144.948,89.0566 149.5,88.5 Z"/></g>
<g><path style="opacity:0.961" fill="#a1c787" d="M 136.5,91.5 C 135.5,92.1667 134.5,92.8333 133.5,93.5C 129.314,94.9079 124.981,95.5745 120.5,95.5C 125.573,93.565 130.906,92.2317 136.5,91.5 Z"/></g>
<g><path style="opacity:0.961" fill="#aace92" d="M 273.5,93.5 C 275.698,93.8751 277.698,94.5418 279.5,95.5C 277.5,95.5 275.5,95.5 273.5,95.5C 273.5,94.8333 273.5,94.1667 273.5,93.5 Z"/></g>
<g><path style="opacity:1" fill="#a1ca88" d="M 279.5,95.5 C 282.428,95.5651 285.095,96.2318 287.5,97.5C 286.167,97.5 284.833,97.5 283.5,97.5C 281.62,97.7709 280.287,97.1042 279.5,95.5 Z"/></g>
<g><path style="opacity:0.975" fill="#77ac55" d="M 120.5,95.5 C 118.316,97.5848 115.649,98.5848 112.5,98.5C 112.5,120.5 112.5,142.5 112.5,164.5C 127.676,164.171 142.676,164.504 157.5,165.5C 142.167,165.5 126.833,165.5 111.5,165.5C 111.5,142.5 111.5,119.5 111.5,96.5C 114.518,96.2962 117.518,95.9629 120.5,95.5 Z"/></g>
<g><path style="opacity:1" fill="#78ae55" d="M 283.5,97.5 C 284.833,97.5 286.167,97.5 287.5,97.5C 288.497,119.994 288.831,142.661 288.5,165.5C 273.167,165.5 257.833,165.5 242.5,165.5C 256.99,164.504 271.657,164.171 286.5,164.5C 286.5,142.5 286.5,120.5 286.5,98.5C 285.209,98.7373 284.209,98.404 283.5,97.5 Z"/></g>
<g><path style="opacity:1" fill="#a1cc85" d="M 191.5,138.5 C 196.032,138.182 200.366,138.515 204.5,139.5C 195.732,138.692 187.732,140.692 180.5,145.5C 180.859,143.629 181.859,142.129 183.5,141C 186.251,140.057 188.917,139.224 191.5,138.5 Z"/></g>
<g><path style="opacity:1" fill="#81b45d" d="M 191.5,138.5 C 200.593,136.965 209.593,137.632 218.5,140.5C 220.405,143.304 222.071,146.304 223.5,149.5C 218.173,144.336 211.84,141.002 204.5,139.5C 200.366,138.515 196.032,138.182 191.5,138.5 Z"/></g>
<g><path style="opacity:1" fill="#91c06c" d="M 180.5,145.5 C 176.429,149.331 173.095,153.665 170.5,158.5C 170.804,155.478 171.304,152.478 172,149.5C 174.754,147.891 177.587,146.558 180.5,145.5 Z"/></g>
<g><path style="opacity:1" fill="#9cc681" d="M 207.5,167.5 C 207.5,166.5 207.5,165.5 207.5,164.5C 207.88,161.208 206.547,158.875 203.5,157.5C 202.702,157.957 202.369,158.624 202.5,159.5C 199.192,157.716 197.525,158.716 197.5,162.5C 196.837,160.958 196.17,159.291 195.5,157.5C 194.735,158.612 193.735,159.279 192.5,159.5C 197.406,152.856 202.572,152.856 208,159.5C 208.801,162.367 208.634,165.034 207.5,167.5 Z"/></g>
<g><path style="opacity:0.941" fill="#a8ce8e" d="M 170.5,158.5 C 170.279,161.067 169.612,163.401 168.5,165.5C 168.338,163.473 168.505,161.473 169,159.5C 169.383,158.944 169.883,158.611 170.5,158.5 Z"/></g>
<g><path style="opacity:0.647" fill="#97c37a" d="M 223.5,149.5 C 225.09,149.628 226.423,150.295 227.5,151.5C 231.192,158.31 232.859,165.643 232.5,173.5C 232.076,177.903 231.409,182.237 230.5,186.5C 229.5,186.5 228.5,186.5 227.5,186.5C 233.643,173.312 232.309,160.979 223.5,149.5 Z"/></g>
<g><path style="opacity:0.443" fill="#bcdaa7" d="M 192.5,168.5 C 195.858,169.527 197.525,171.86 197.5,175.5C 196.018,173.109 194.351,170.776 192.5,168.5 Z"/></g>
<g><path style="opacity:1" fill="#6fb243" d="M 197.5,162.5 C 200.808,164.284 202.475,163.284 202.5,159.5C 202.369,158.624 202.702,157.957 203.5,157.5C 206.547,158.875 207.88,161.208 207.5,164.5C 206.069,165.78 205.402,167.447 205.5,169.5C 204.5,169.5 203.5,169.5 202.5,169.5C 202.5,172.167 202.5,174.833 202.5,177.5C 200.678,177.169 199.011,176.502 197.5,175.5C 197.525,171.86 195.858,169.527 192.5,168.5C 191.225,165.396 191.225,162.396 192.5,159.5C 193.735,159.279 194.735,158.612 195.5,157.5C 196.17,159.291 196.837,160.958 197.5,162.5 Z M 202.5,159.5 C 202.475,163.284 200.808,164.284 197.5,162.5C 197.525,158.716 199.192,157.716 202.5,159.5 Z"/></g>
<g><path style="opacity:0.059" fill="#e7fcd7" d="M 111.5,165.5 C 126.833,165.5 142.167,165.5 157.5,165.5C 158.833,168.833 158.833,172.167 157.5,175.5C 142.167,175.5 126.833,175.5 111.5,175.5C 126.658,174.504 141.991,174.17 157.5,174.5C 157.5,171.833 157.5,169.167 157.5,166.5C 141.991,166.83 126.658,166.496 111.5,165.5 Z"/></g>
<g><path style="opacity:0.059" fill="#e7fcd9" d="M 242.5,165.5 C 257.833,165.5 273.167,165.5 288.5,165.5C 273.342,166.496 258.009,166.83 242.5,166.5C 242.5,169.167 242.5,171.833 242.5,174.5C 258.009,174.17 273.342,174.504 288.5,175.5C 272.833,175.5 257.167,175.5 241.5,175.5C 241.187,171.958 241.521,168.625 242.5,165.5 Z"/></g>
<g><path style="opacity:0.978" fill="#75aa52" d="M 111.5,175.5 C 126.833,175.5 142.167,175.5 157.5,175.5C 142.676,176.496 127.676,176.829 112.5,176.5C 112.5,187.833 112.5,199.167 112.5,210.5C 112.167,210.5 111.833,210.5 111.5,210.5C 111.5,198.833 111.5,187.167 111.5,175.5 Z"/></g>
<g><path style="opacity:1" fill="#81b45e" d="M 241.5,175.5 C 257.167,175.5 272.833,175.5 288.5,175.5C 288.667,190.17 288.5,204.837 288,219.5C 287.809,221.708 287.309,223.708 286.5,225.5C 286.5,209.167 286.5,192.833 286.5,176.5C 271.324,176.829 256.324,176.496 241.5,175.5 Z"/></g>
<g><path style="opacity:0.965" fill="#7db05b" d="M 207.5,164.5 C 207.5,165.5 207.5,166.5 207.5,167.5C 207.288,169.384 206.288,170.717 204.5,171.5C 203.505,177.128 203.171,182.794 203.5,188.5C 202.5,188.5 201.5,188.5 200.5,188.5C 200.813,184.958 200.479,181.625 199.5,178.5C 198.599,177.71 197.932,176.71 197.5,175.5C 199.011,176.502 200.678,177.169 202.5,177.5C 202.5,174.833 202.5,172.167 202.5,169.5C 203.5,169.5 204.5,169.5 205.5,169.5C 205.402,167.447 206.069,165.78 207.5,164.5 Z"/></g>
<g><path style="opacity:1" fill="#9ac27b" d="M 169.5,179.5 C 171.147,182.795 172.814,186.128 174.5,189.5C 170.247,187.552 168.58,184.219 169.5,179.5 Z"/></g>
<g><path style="opacity:1" fill="#a7c98f" d="M 199.5,178.5 C 200.479,181.625 200.813,184.958 200.5,188.5C 201.5,188.5 202.5,188.5 203.5,188.5C 202.415,190.582 200.915,190.916 199,189.5C 199.053,185.828 199.22,182.161 199.5,178.5 Z"/></g>
<g><path style="opacity:0.541" fill="#bedf9f" d="M 227.5,186.5 C 227.573,188.027 226.906,189.027 225.5,189.5C 225.427,187.973 226.094,186.973 227.5,186.5 Z"/></g>
<g><path style="opacity:1" fill="#95c075" d="M 174.5,189.5 C 176.833,191.167 178.833,193.167 180.5,195.5C 176.194,195.697 174.194,193.697 174.5,189.5 Z"/></g>
<g><path style="opacity:0.957" fill="#a2c787" d="M 223.5,191.5 C 222.833,194.167 221.167,195.833 218.5,196.5C 219.833,194.5 221.5,192.833 223.5,191.5 Z"/></g>
<g><path style="opacity:0.765" fill="#cae3be" d="M 184.5,197.5 C 185.71,197.932 186.71,198.599 187.5,199.5C 185.821,199.715 184.821,199.048 184.5,197.5 Z"/></g>
<g><path style="opacity:0.999" fill="#8fbc6d" d="M 180.5,195.5 C 181.833,196.167 183.167,196.833 184.5,197.5C 184.821,199.048 185.821,199.715 187.5,199.5C 195.833,202.167 204.167,202.167 212.5,199.5C 211.547,201.61 209.881,202.777 207.5,203C 199.248,203.969 191.248,202.969 183.5,200C 182.252,198.6 181.252,197.1 180.5,195.5 Z"/></g>
<g><path style="opacity:1" fill="#94c175" d="M 111.5,210.5 C 111.833,210.5 112.167,210.5 112.5,210.5C 114.075,218.328 115.075,226.328 115.5,234.5C 112.673,226.873 111.34,218.873 111.5,210.5 Z"/></g>
<g><path style="opacity:1" fill="#99c481" d="M 286.5,226.5 C 285.922,231.165 284.589,235.499 282.5,239.5C 282.464,234.615 283.797,230.282 286.5,226.5 Z"/></g>
<g><path style="opacity:0.949" fill="#aacb8c" d="M 115.5,234.5 C 117.28,235.99 117.946,237.99 117.5,240.5C 116.262,238.786 115.595,236.786 115.5,234.5 Z"/></g>
<g><path style="opacity:0.749" fill="#b5d5a1" d="M 117.5,240.5 C 118.5,240.833 119.167,241.5 119.5,242.5C 119.5,243.5 119.5,244.5 119.5,245.5C 118.463,244.07 117.796,242.403 117.5,240.5 Z"/></g>
<g><path style="opacity:1" fill="#8cbd6b" d="M 282.5,239.5 C 280.971,245.78 278.304,251.447 274.5,256.5C 274.681,253.215 275.681,250.215 277.5,247.5C 277.182,246.353 276.516,245.519 275.5,245C 276.362,242.266 277.195,242.099 278,244.5C 278.996,242.34 280.496,240.673 282.5,239.5 Z"/></g>
<g><path style="opacity:1" fill="#84b961" d="M 119.5,242.5 C 120.397,243.598 121.23,243.598 122,242.5C 122.241,245.289 122.908,247.956 124,250.5C 125.011,251.337 126.178,251.67 127.5,251.5C 128.367,255.573 129.534,259.573 131,263.5C 133.663,265.981 135.496,268.981 136.5,272.5C 129.086,264.689 123.42,255.689 119.5,245.5C 119.5,244.5 119.5,243.5 119.5,242.5 Z"/></g>
<g><path style="opacity:1" fill="#94c173" d="M 274.5,256.5 C 272.822,261.197 270.156,265.197 266.5,268.5C 266.5,268.167 266.5,267.833 266.5,267.5C 267.968,265.084 268.635,262.417 268.5,259.5C 269.5,259.5 270.5,259.5 271.5,259.5C 271.215,257.712 271.548,256.045 272.5,254.5C 273.182,255.243 273.849,255.909 274.5,256.5 Z"/></g>
<g><path style="opacity:1" fill="#81ba59" d="M 266.5,267.5 C 266.5,267.833 266.5,268.167 266.5,268.5C 264.215,272.727 261.215,276.393 257.5,279.5C 257.5,277.833 257.5,276.167 257.5,274.5C 255.158,274.496 253.158,273.663 251.5,272C 252.416,271.626 253.25,271.126 254,270.5C 255.323,273.059 257.157,273.725 259.5,272.5C 259.291,271.914 258.957,271.414 258.5,271C 260.227,269.257 260.894,267.424 260.5,265.5C 262.173,267.086 264.173,267.753 266.5,267.5 Z"/></g>
<g><path style="opacity:1" fill="#a1c885" d="M 136.5,273.5 C 140.758,274.975 143.425,277.975 144.5,282.5C 141.862,279.526 139.195,276.526 136.5,273.5 Z"/></g>
<g><path style="opacity:1" fill="#9dc785" d="M 255.5,281.5 C 254.557,284.109 252.89,286.109 250.5,287.5C 249.848,283.44 251.515,281.44 255.5,281.5 Z"/></g>
<g><path style="opacity:0.8" fill="#b2d297" d="M 144.5,282.5 C 147.5,282.833 149.167,284.5 149.5,287.5C 147.5,286.167 145.833,284.5 144.5,282.5 Z"/></g>
<g><path style="opacity:0.655" fill="#c8e2ba" d="M 151.5,289.5 C 153.404,289.738 154.738,290.738 155.5,292.5C 153.596,292.262 152.262,291.262 151.5,289.5 Z"/></g>
<g><path style="opacity:1" fill="#96c37e" d="M 155.5,292.5 C 158.747,293.412 161.08,295.412 162.5,298.5C 159.573,297.243 157.239,295.243 155.5,292.5 Z"/></g>
<g><path style="opacity:1" fill="#83b95d" d="M 250.5,287.5 C 246.798,291.203 242.798,294.537 238.5,297.5C 236.801,297.527 235.467,298.194 234.5,299.5C 234.64,297.876 233.973,296.71 232.5,296C 235.003,293.795 238.003,293.295 241.5,294.5C 241.5,292.833 241.5,291.167 241.5,289.5C 244.564,289.072 247.564,288.406 250.5,287.5 Z"/></g>
<g><path style="opacity:0.765" fill="#9bc27e" d="M 238.5,297.5 C 232.901,302.639 226.901,307.305 220.5,311.5C 220.5,310.5 220.5,309.5 220.5,308.5C 221.791,308.737 222.791,308.404 223.5,307.5C 226.999,304.586 230.666,301.919 234.5,299.5C 235.467,298.194 236.801,297.527 238.5,297.5 Z"/></g>
<g><path style="opacity:0.741" fill="#b1d79a" d="M 162.5,298.5 C 164.749,299.08 166.415,300.413 167.5,302.5C 165.251,301.92 163.585,300.587 162.5,298.5 Z"/></g>
<g><path style="opacity:1" fill="#87b867" d="M 167.5,302.5 C 173.622,303.978 178.289,307.312 181.5,312.5C 179.973,312.573 178.973,311.906 178.5,310.5C 178.027,309.094 177.027,308.427 175.5,308.5C 172.467,306.984 169.8,304.984 167.5,302.5 Z"/></g>
<g><path style="opacity:0.525" fill="#bedda5" d="M 175.5,308.5 C 177.027,308.427 178.027,309.094 178.5,310.5C 176.973,310.573 175.973,309.906 175.5,308.5 Z"/></g>
<g><path style="opacity:0.455" fill="#c0dcb1" d="M 181.5,312.5 C 183.027,312.427 184.027,313.094 184.5,314.5C 182.973,314.573 181.973,313.906 181.5,312.5 Z"/></g>
<g><path style="opacity:1" fill="#9cc281" d="M 184.5,314.5 C 187.857,314.216 190.191,315.549 191.5,318.5C 188.669,317.921 186.336,316.588 184.5,314.5 Z"/></g>
<g><path style="opacity:1" fill="#7db856" d="M 223.5,307.5 C 222.791,308.404 221.791,308.737 220.5,308.5C 220.5,309.5 220.5,310.5 220.5,311.5C 218.337,313.083 216.004,314.416 213.5,315.5C 209.985,316.043 206.652,317.043 203.5,318.5C 203.5,319.5 203.5,320.5 203.5,321.5C 201.167,321.5 198.833,321.5 196.5,321.5C 194.326,321.25 192.659,320.25 191.5,318.5C 194.95,319.91 198.616,320.576 202.5,320.5C 202.629,317.298 204.129,314.965 207,313.5C 211.697,315.68 214.697,314.347 216,309.5C 217.011,310.337 218.178,310.67 219.5,310.5C 219.5,309.5 219.5,308.5 219.5,307.5C 220.833,307.5 222.167,307.5 223.5,307.5 Z"/></g>
<g><path style="opacity:1" fill="#9ac37a" d="M 213.5,315.5 C 210.506,318 207.173,320 203.5,321.5C 203.5,320.5 203.5,319.5 203.5,318.5C 206.652,317.043 209.985,316.043 213.5,315.5 Z"/></g>
<g><path style="opacity:1" fill="#abcd94" d="M 196.5,321.5 C 198.833,321.5 201.167,321.5 203.5,321.5C 201.167,324.167 198.833,324.167 196.5,321.5 Z"/></g>
</svg>
