<svg width="62" height="62" viewBox="0 0 62 62" fill="none" xmlns="http://www.w3.org/2000/svg">
<path fill-rule="evenodd" clip-rule="evenodd" d="M0.688965 30.3111C0.688965 13.9512 13.9513 0.688904 30.3112 0.688904H31.6889C48.0488 0.688904 61.3112 13.9512 61.3112 30.3111C61.3112 46.671 48.0489 59.9333 31.6889 59.9333H30.3112C13.9513 59.9333 0.688965 46.671 0.688965 30.3111Z" fill="#229E45"/>
<path fill-rule="evenodd" clip-rule="evenodd" d="M31.6537 49.0914L59.4811 31.0243L31.4842 12.9086L3.54785 31.0727L31.6416 49.0914H31.6537Z" fill="#F8E509"/>
<path fill-rule="evenodd" clip-rule="evenodd" d="M43.7752 31C43.8241 32.5767 43.5556 34.1472 42.9857 35.6181C42.4157 37.089 41.5559 38.4303 40.4573 39.5623C39.3587 40.6943 38.0438 41.594 36.5907 42.2078C35.1376 42.8217 33.5759 43.1371 31.9984 43.1355C30.421 43.1339 28.8599 42.8152 27.4081 42.1984C25.9562 41.5816 24.6432 40.6792 23.5469 39.5449C22.4507 38.4106 21.5936 37.0675 21.0267 35.5955C20.4597 34.1234 20.1945 32.5524 20.2467 30.9758C20.3478 27.9211 21.6331 25.0256 23.8309 22.9016C26.0286 20.7776 28.9663 19.5918 32.0227 19.5949C35.079 19.5981 38.0143 20.7899 40.2076 22.9184C42.401 25.047 43.6804 27.9452 43.7752 31Z" fill="#2B49A3"/>
<path fill-rule="evenodd" clip-rule="evenodd" d="M28.1302 38.0477L27.8435 37.8757C27.7959 37.8471 27.7369 37.8452 27.6875 37.8707C27.5681 37.9323 27.4305 37.8286 27.4568 37.6968L27.4593 37.6845C27.4699 37.6313 27.4539 37.5763 27.4164 37.5372L27.412 37.5327C27.319 37.4358 27.3769 37.2744 27.5102 37.2587C27.5646 37.2523 27.6122 37.2188 27.6367 37.1698C27.6985 37.0462 27.8765 37.0487 27.9337 37.1746L27.9369 37.1818C27.9594 37.2311 28.0046 37.2662 28.058 37.2756C28.1918 37.2992 28.2407 37.4659 28.1408 37.5581L28.0696 37.6239M36.0255 40.0457L35.7408 39.8749C35.6919 39.8456 35.6313 39.8432 35.5802 39.8688C35.4559 39.9309 35.3144 39.8229 35.3417 39.6866L35.3426 39.6822C35.3532 39.6293 35.3372 39.5745 35.2998 39.5355C35.2051 39.4369 35.2644 39.2726 35.4001 39.2571L35.4065 39.2564C35.4603 39.2502 35.5073 39.2173 35.5314 39.169C35.5925 39.0469 35.7686 39.0528 35.8219 39.1784C35.8431 39.2284 35.8889 39.2644 35.9423 39.2739C36.0764 39.2975 36.1295 39.4639 36.0313 39.5582L35.9649 39.6219M32.6228 36.8489L32.3734 36.705C32.3324 36.6814 32.2824 36.6795 32.2398 36.7C32.1333 36.7513 32.0141 36.6588 32.0373 36.543L32.0393 36.5332C32.0483 36.488 32.0353 36.4413 32.0044 36.4072L31.998 36.4002C31.9207 36.3151 31.9736 36.1782 32.088 36.1663C32.1344 36.1615 32.1756 36.1336 32.1971 36.0921C32.2509 35.9882 32.4015 35.9935 32.4476 36.1011C32.4662 36.1445 32.5059 36.1755 32.5525 36.1832C32.6688 36.2026 32.7126 36.3478 32.6253 36.4271L32.5743 36.4735M40.5907 35.6985L40.339 35.5532C40.2996 35.5305 40.2514 35.5291 40.2107 35.5494C40.1096 35.6 39.9947 35.5116 40.0176 35.4009L40.019 35.3942C40.0282 35.3497 40.0147 35.3032 39.9834 35.2702C39.9036 35.1865 39.9513 35.0468 40.0658 35.031L40.071 35.0302C40.1159 35.024 40.1548 34.9961 40.175 34.9557C40.226 34.8537 40.372 34.8547 40.4214 34.9575L40.4264 34.9679C40.4459 35.0084 40.4838 35.037 40.5281 35.0446C40.6422 35.0643 40.6837 35.2066 40.598 35.2845L40.5423 35.3352M32.4774 33.3129L32.1908 33.1409C32.1431 33.1123 32.0841 33.1105 32.0348 33.1359C31.9154 33.1975 31.7778 33.0938 31.8041 32.9621L31.8066 32.9497C31.8172 32.8966 31.8012 32.8416 31.7636 32.8025L31.76 32.7987C31.6667 32.7015 31.7248 32.5396 31.8585 32.5238C31.9124 32.5175 31.9596 32.4847 31.9845 32.4365C32.0472 32.315 32.2224 32.3177 32.2805 32.4415L32.2837 32.4484C32.3065 32.4969 32.3514 32.5314 32.4043 32.5407C32.5385 32.5644 32.5876 32.7316 32.4874 32.824L32.4169 32.8891M22.7657 29.668L22.4791 29.496C22.4315 29.4675 22.3725 29.466 22.3236 29.4921C22.2077 29.5539 22.0714 29.4555 22.0936 29.3261L22.0976 29.3027C22.1066 29.2506 22.0903 29.1975 22.0537 29.1594C21.9584 29.0602 22.0213 28.8943 22.158 28.8787C22.2118 28.8726 22.2596 28.8396 22.2838 28.7912C22.3448 28.6692 22.521 28.6751 22.5743 28.8007C22.5955 28.8507 22.6412 28.8867 22.6947 28.8961C22.8288 28.9198 22.8818 29.0862 22.7836 29.1805L22.7173 29.2442M23.9403 34.5118L23.6517 34.3482C23.6049 34.3217 23.5482 34.3199 23.4998 34.3433C23.3779 34.4023 23.2418 34.2926 23.2691 34.1599C23.2799 34.1076 23.265 34.0526 23.2288 34.0134L23.2178 34.0015C23.1254 33.9014 23.1861 33.7386 23.3215 33.7227C23.3753 33.7163 23.4227 33.684 23.4482 33.6362C23.5119 33.5169 23.684 33.5203 23.7429 33.642L23.7467 33.6497C23.7695 33.697 23.813 33.7308 23.8644 33.7414C24.0005 33.7694 24.0462 33.9408 23.9421 34.0328L23.8798 34.0879M36.0618 27.8758L35.8145 27.7331C35.7722 27.7087 35.7206 27.7064 35.6763 27.727C35.5648 27.7787 35.4419 27.6814 35.466 27.5609C35.4752 27.5152 35.4627 27.4677 35.4321 27.4326L35.4248 27.4242C35.3465 27.3342 35.4043 27.1932 35.523 27.1813C35.5716 27.1765 35.6149 27.147 35.6368 27.1033C35.6905 26.9958 35.845 26.999 35.8941 27.1087L35.8975 27.1161C35.9169 27.1595 35.9568 27.1903 36.0037 27.1981C36.1206 27.2176 36.1637 27.3632 36.0761 27.4431L36.0134 27.5004M35.4079 31.0364L35.1692 30.9071C35.1366 30.8894 35.0975 30.8884 35.064 30.9043C34.9793 30.9447 34.8842 30.873 34.8996 30.7804L34.9021 30.7655C34.908 30.7302 34.897 30.6941 34.8725 30.668C34.8081 30.5997 34.8486 30.4872 34.9418 30.4755L34.9492 30.4746C34.9861 30.47 35.0183 30.4472 35.0349 30.414C35.0772 30.3295 35.1989 30.3327 35.2365 30.4194L35.2384 30.4236C35.2535 30.4584 35.2852 30.4831 35.3225 30.4893C35.4152 30.5048 35.4486 30.6207 35.3784 30.6832L35.3352 30.7215M22.2087 35.3836L22.0189 35.2698C21.9862 35.2501 21.9458 35.2482 21.9113 35.2646C21.8278 35.3044 21.7341 35.2333 21.75 35.1422L21.7512 35.135C21.7572 35.1009 21.7467 35.0661 21.723 35.0409C21.66 34.9739 21.7022 34.8638 21.7939 34.8561L21.7983 34.8557C21.8351 34.8527 21.8676 34.8307 21.8841 34.7977C21.923 34.7198 22.0342 34.7198 22.0731 34.7977L22.0763 34.804C22.0911 34.8336 22.1185 34.8549 22.1508 34.8619L22.1558 34.863C22.25 34.8835 22.2827 35.0013 22.2125 35.0674L22.1724 35.1051M40.6513 36.4977L40.4826 36.4183C40.4589 36.4072 40.4316 36.4065 40.4074 36.4165L40.3916 36.423C40.328 36.4492 40.2615 36.3922 40.2773 36.3253C40.2839 36.297 40.2755 36.2672 40.2549 36.2467C40.205 36.1968 40.2353 36.1113 40.3055 36.1039L40.3175 36.1026C40.3447 36.0998 40.3689 36.0843 40.383 36.0609L40.3848 36.0578C40.4204 35.9986 40.508 36.0042 40.5357 36.0675C40.5473 36.0941 40.5718 36.1129 40.6005 36.1175C40.6728 36.1289 40.6989 36.2199 40.6433 36.2675L40.6149 36.2918" fill="#FFFFEF"/>
<path fill-rule="evenodd" clip-rule="evenodd" d="M22.2209 35.3957L22.029 35.2806C21.9976 35.2617 21.9588 35.2598 21.9257 35.2756C21.8436 35.3147 21.7525 35.2424 21.7718 35.1536L21.7724 35.1506C21.7802 35.1147 21.7692 35.0772 21.7432 35.0512L21.7374 35.0454C21.6747 34.9827 21.7138 34.8754 21.8021 34.8677C21.8368 34.8647 21.8677 34.8445 21.8845 34.814L21.8868 34.8098C21.9308 34.7298 22.0467 34.7325 22.0876 34.8141C22.1029 34.8449 22.1315 34.8671 22.165 34.8744L22.168 34.875C22.2622 34.8955 22.2949 35.0133 22.2247 35.0794L22.1846 35.1172" fill="#FFFFEF"/>
<path fill-rule="evenodd" clip-rule="evenodd" d="M22.2209 35.3957L22.029 35.2806C21.9976 35.2617 21.9588 35.2598 21.9257 35.2756C21.8436 35.3147 21.7525 35.2424 21.7718 35.1536L21.7724 35.1506C21.7802 35.1147 21.7692 35.0772 21.7432 35.0512L21.7374 35.0454C21.6747 34.9827 21.7138 34.8754 21.8021 34.8677C21.8368 34.8647 21.8677 34.8445 21.8845 34.814L21.8868 34.8098C21.9308 34.7298 22.0467 34.7325 22.0876 34.8141C22.1029 34.8449 22.1315 34.8671 22.165 34.8744L22.168 34.875C22.2622 34.8955 22.2949 35.0133 22.2247 35.0794L22.1846 35.1172M26.0838 35.3957L25.892 35.2806C25.8606 35.2618 25.8218 35.2603 25.7891 35.2766C25.7105 35.3159 25.6207 35.2491 25.6357 35.1626L25.6384 35.1473C25.6444 35.1131 25.6339 35.0781 25.6101 35.0528L25.6041 35.0465C25.5434 34.9819 25.5842 34.8758 25.6724 34.8681C25.7097 34.8648 25.7425 34.8421 25.7586 34.8084C25.7967 34.7283 25.9107 34.7283 25.9489 34.8084L25.9519 34.8147C25.9663 34.8451 25.9941 34.867 26.0269 34.8742L26.032 34.8753C26.1258 34.8957 26.1583 35.0129 26.0884 35.0786L26.0475 35.1172M25.5994 36.6914L25.4076 36.5763C25.3762 36.5575 25.3374 36.556 25.3047 36.5723C25.2261 36.6116 25.1363 36.5448 25.1514 36.4583L25.1537 36.4448C25.1599 36.4094 25.149 36.3733 25.1244 36.3471L25.1211 36.3436C25.0579 36.2765 25.0974 36.1661 25.1887 36.1542L25.1918 36.1538C25.2271 36.1492 25.2578 36.1274 25.2737 36.0956C25.3131 36.0168 25.4256 36.0168 25.465 36.0956L25.467 36.0997C25.4818 36.1292 25.5092 36.1505 25.5415 36.1576L25.5465 36.1586C25.6408 36.1791 25.6734 36.2969 25.6032 36.363L25.5631 36.4007M33.64 34.3422L33.4503 34.2283C33.4175 34.2087 33.3771 34.2067 33.3426 34.2231C33.2591 34.2629 33.1655 34.1918 33.1813 34.1007L33.1825 34.0937C33.1885 34.0595 33.178 34.0245 33.1542 33.9993L33.1497 33.9945C33.0884 33.9293 33.1293 33.8222 33.2184 33.8144C33.2548 33.8113 33.287 33.7898 33.3039 33.7574L33.3059 33.7537C33.3488 33.6719 33.4673 33.6754 33.507 33.7588C33.522 33.7903 33.5514 33.813 33.5858 33.8193C33.6735 33.8352 33.7057 33.9442 33.6408 34.0052L33.5916 34.0515M31.2787 34.3422L31.0869 34.227C31.0554 34.2082 31.0166 34.2063 30.9835 34.2221C30.9015 34.2612 30.8103 34.1889 30.8296 34.1001L30.8306 34.0956C30.8382 34.0604 30.828 34.0238 30.8034 33.9976L30.799 33.9929C30.7383 33.9284 30.7791 33.8222 30.8674 33.8146C30.9046 33.8113 30.9374 33.7886 30.9535 33.7549C30.9916 33.6748 31.1056 33.6748 31.1438 33.7549L31.1458 33.7591C31.1608 33.7906 31.1906 33.813 31.225 33.819C31.3162 33.8348 31.3521 33.9483 31.2847 34.0117L31.2424 34.0515M24.885 33.5187L24.773 33.4534C24.7521 33.4412 24.7266 33.44 24.7046 33.4501C24.6515 33.4746 24.5923 33.431 24.6 33.373L24.602 33.3583C24.6048 33.3373 24.5977 33.3162 24.5827 33.3012C24.5428 33.2614 24.5659 33.1931 24.6218 33.1857L24.6342 33.184C24.6548 33.1813 24.6728 33.1688 24.6827 33.1505L24.6846 33.1469C24.7105 33.0989 24.781 33.1042 24.7994 33.1556C24.8073 33.1778 24.827 33.1937 24.8504 33.1968L24.8544 33.1974C24.9115 33.205 24.9351 33.2748 24.8944 33.3155L24.8729 33.3371M40.3486 37.539L40.156 37.4331C40.1249 37.416 40.0874 37.4149 40.0553 37.4302C39.9725 37.4696 39.8807 37.3955 39.9002 37.3059C39.908 37.2701 39.8977 37.2325 39.8726 37.2058L39.8703 37.2033C39.8072 37.1363 39.8466 37.0259 39.9379 37.014L39.9411 37.0136C39.9763 37.009 40.007 36.9872 40.0229 36.9553C40.0623 36.8765 40.1748 36.8765 40.2142 36.9553L40.2163 36.9594C40.231 36.989 40.2584 37.0103 40.2908 37.0173L40.2957 37.0184C40.39 37.0389 40.4226 37.1567 40.3524 37.2228L40.3123 37.2605M38.3748 37.7933L38.2243 37.6993C38.1977 37.6826 38.1641 37.6822 38.1371 37.6981C38.0745 37.7349 37.9978 37.6804 38.012 37.6091L38.0143 37.5979C38.0201 37.5687 38.0109 37.5384 37.9898 37.5173C37.9357 37.4632 37.9683 37.3702 38.0444 37.3626L38.0486 37.3622C38.0782 37.3592 38.104 37.3409 38.1167 37.314C38.1471 37.2493 38.2392 37.2493 38.2696 37.314L38.2715 37.3179C38.2831 37.3427 38.3059 37.3606 38.3328 37.3659L38.338 37.367C38.4172 37.3828 38.4435 37.4827 38.3826 37.5355L38.3506 37.5632M39.3193 37.7812L39.1673 37.6862C39.1416 37.6701 39.1091 37.6694 39.0827 37.6842C39.022 37.7184 38.9488 37.667 38.9603 37.5984L38.9613 37.5925C38.9656 37.5664 38.9576 37.5397 38.9396 37.5202C38.8913 37.4679 38.9228 37.3826 38.9935 37.3747L38.9971 37.3744C39.0244 37.3713 39.0482 37.3547 39.0605 37.3302L39.0623 37.3266C39.0922 37.2667 39.1785 37.2689 39.2053 37.3303C39.216 37.3547 39.2383 37.3721 39.2647 37.3765L39.27 37.3774C39.3413 37.3893 39.3694 37.4769 39.3183 37.528L39.283 37.5632M41.9713 35.4562L41.8276 35.37C41.804 35.3558 41.7747 35.3547 41.75 35.367L41.7474 35.3684C41.6872 35.3984 41.6193 35.3447 41.6347 35.2793C41.6407 35.2536 41.6336 35.2266 41.6158 35.2073L41.61 35.2011C41.5638 35.151 41.5955 35.0695 41.6631 35.0615C41.689 35.0585 41.7122 35.0429 41.7245 35.0199C41.7558 34.9612 41.8409 34.9645 41.8676 35.0254L41.8691 35.0288C41.88 35.0537 41.9027 35.0716 41.9295 35.0763C41.9962 35.0881 42.0208 35.1712 41.971 35.2171L41.935 35.2504M38.3869 39.1011L38.1919 38.9939C38.1624 38.9776 38.1264 38.9771 38.0962 38.9922C38.0194 39.0306 37.9314 38.9621 37.9504 38.8784C37.9582 38.844 37.9473 38.8078 37.9215 38.7837C37.8605 38.7265 37.8932 38.6241 37.9761 38.6128L37.9854 38.6115C38.0172 38.6072 38.0451 38.5884 38.0612 38.5607L38.0635 38.5566C38.1088 38.4785 38.2227 38.482 38.263 38.5627L38.2675 38.5718C38.2817 38.6001 38.3083 38.6202 38.3395 38.6262C38.4227 38.642 38.4511 38.7468 38.3874 38.8025L38.3506 38.8347M38.399 40.1547L38.2255 40.0583C38.1977 40.0428 38.164 40.0421 38.1356 40.0563C38.0645 40.0918 37.9834 40.031 37.9976 39.9528L38.0022 39.9272C38.0081 39.8951 37.9984 39.8621 37.9761 39.8382L37.9739 39.8359C37.918 39.776 37.954 39.6777 38.035 39.6655C38.0656 39.6609 38.0929 39.6416 38.1073 39.6142C38.1456 39.5415 38.2523 39.5455 38.2828 39.6218C38.2949 39.6521 38.3217 39.6742 38.3536 39.6806C38.4328 39.6964 38.4621 39.7955 38.4031 39.8506L38.3627 39.8882M36.6068 37.7812L36.4637 37.6953C36.4397 37.6809 36.4101 37.6798 36.3851 37.6923C36.3235 37.7231 36.2538 37.6686 36.2687 37.6015L36.2705 37.5933C36.2764 37.567 36.2684 37.5396 36.2493 37.5206C36.2029 37.4741 36.2321 37.3944 36.2973 37.3867C36.324 37.3835 36.3477 37.3672 36.3597 37.3432L36.3617 37.3391C36.3917 37.279 36.4782 37.2812 36.5051 37.3427C36.5157 37.367 36.538 37.3844 36.5641 37.389C36.6308 37.4008 36.6563 37.484 36.6066 37.53L36.5705 37.5632M34.9357 37.7812L34.7926 37.6953C34.7686 37.6809 34.739 37.6798 34.714 37.6923C34.6524 37.7231 34.5827 37.6686 34.5976 37.6014L34.5994 37.5933C34.6053 37.567 34.5973 37.5396 34.5783 37.5206C34.5318 37.4741 34.561 37.3944 34.6262 37.3867C34.6529 37.3835 34.6766 37.3672 34.6886 37.3432L34.6906 37.3391C34.7206 37.279 34.8071 37.2812 34.834 37.3427C34.8446 37.367 34.8667 37.3844 34.8928 37.389L34.8959 37.3895C34.9637 37.4015 34.9899 37.4848 34.9413 37.5335L34.9115 37.5632M32.09 35.2867L31.9464 35.2005C31.9227 35.1863 31.8935 35.1852 31.8688 35.1975L31.8661 35.1988C31.806 35.2289 31.738 35.1752 31.7534 35.1097C31.7595 35.0841 31.7524 35.0571 31.7345 35.0378L31.7288 35.0316C31.6826 34.9815 31.7142 34.8999 31.7819 34.892C31.8078 34.8889 31.8309 34.8734 31.8432 34.8504C31.8745 34.7917 31.9597 34.795 31.9863 34.8559L31.9884 34.8607C31.999 34.8848 32.0208 34.9019 32.0466 34.9065C32.112 34.918 32.1343 35.0005 32.0836 35.0434L32.0537 35.0687M32.4049 40.3363L32.2793 40.2687C32.2594 40.258 32.2355 40.258 32.2156 40.2687C32.1656 40.2956 32.1069 40.2521 32.118 40.1964L32.1191 40.1912C32.1236 40.1684 32.1163 40.1446 32.0998 40.1281C32.0594 40.0877 32.079 40.0177 32.135 40.0058L32.1429 40.0041C32.1632 39.9997 32.1806 39.9865 32.1904 39.9683C32.2181 39.9168 32.294 39.9201 32.317 39.9739C32.3264 39.9957 32.3466 40.0113 32.3702 40.0144C32.427 40.022 32.449 40.0925 32.4066 40.1311L32.3807 40.1547M28.1182 32.1625L27.8295 31.9989C27.7828 31.9724 27.726 31.9706 27.6777 31.994C27.5557 32.053 27.4196 31.9433 27.447 31.8106C27.4577 31.7583 27.4428 31.7033 27.4066 31.6641L27.3949 31.6514C27.3028 31.5516 27.3633 31.3894 27.4982 31.3735C27.5526 31.3671 27.6004 31.3341 27.6255 31.2854C27.6883 31.1639 27.8632 31.1672 27.9212 31.291L27.9244 31.2979C27.9472 31.3465 27.9922 31.3809 28.045 31.3902C28.1792 31.4139 28.2283 31.5811 28.1281 31.6736L28.0576 31.7386" fill="#FFFFEF"/>
<path fill-rule="evenodd" clip-rule="evenodd" d="M43.0005 35.227C43.0005 35.2293 43.0037 35.2299 43.0045 35.2278C43.2084 34.6949 43.3724 34.1476 43.495 33.5905C43.5196 33.4789 43.48 33.3627 43.3938 33.2876C37.3169 27.9888 30.5473 25.2176 22.0656 25.6388C21.7118 25.6564 21.3923 25.8637 21.2467 26.1866C20.9519 26.8409 21.5054 27.5198 22.2222 27.4859C25.7709 27.3182 29.3242 27.822 32.6939 28.9758C36.5393 30.2924 40.0548 32.4243 42.9998 35.2255C43.0003 35.2259 43.0005 35.2265 43.0005 35.227Z" fill="white"/>
<path d="M40.1414 32.2557C40.1613 32.1882 40.2411 32.1661 40.3026 32.2003C40.3621 32.2333 40.3818 32.308 40.3764 32.3758C40.3737 32.4096 40.3764 32.4439 40.3848 32.4773C40.3969 32.5257 40.4453 32.5863 40.5059 32.6226C40.5785 32.6711 40.6391 32.6953 40.6996 32.6953C40.748 32.6953 40.7965 32.6589 40.8207 32.6226C40.8328 32.5984 40.8449 32.5742 40.8328 32.5379C40.8088 32.4739 40.7726 32.4152 40.7263 32.365L40.6512 32.2836C40.5739 32.205 40.5159 32.1097 40.4816 32.005C40.4605 31.9263 40.4684 31.8425 40.504 31.7691C40.5396 31.6957 40.6004 31.6376 40.6754 31.6054C40.74 31.5768 40.8118 31.5684 40.8812 31.5812C40.9687 31.6003 41.0512 31.6374 41.1234 31.6902C41.1829 31.732 41.2355 31.7823 41.2797 31.8392C41.3474 31.9265 41.3928 32.0368 41.372 32.1453C41.3698 32.1564 41.3672 32.1673 41.364 32.1782C41.3431 32.2502 41.2563 32.2659 41.1923 32.2267C41.1315 32.1896 41.113 32.1143 41.1159 32.0432C41.1166 32.0255 41.1152 32.0086 41.1113 31.9929C41.0992 31.9566 41.0508 31.9082 40.9902 31.8718C40.9297 31.8234 40.8691 31.8113 40.8207 31.8113C40.8067 31.8117 40.7929 31.8152 40.7804 31.8215C40.7678 31.8277 40.7568 31.8367 40.748 31.8476C40.7397 31.8599 40.7342 31.8739 40.7321 31.8886C40.728 31.9177 40.7348 31.9483 40.7475 31.9748C40.7623 32.0054 40.7901 32.0413 40.8265 32.0812C40.8619 32.1201 40.8971 32.1594 40.9287 32.2015L40.972 32.2592C41.0325 32.3399 41.0978 32.4239 41.1063 32.5244C41.1078 32.5421 41.108 32.5599 41.1069 32.5777C41.1026 32.6463 41.0789 32.7122 41.0387 32.7679C40.9964 32.828 40.9375 32.8743 40.8691 32.9011C40.7971 32.9341 40.7163 32.9426 40.6391 32.9254C40.5472 32.902 40.4608 32.8608 40.3848 32.8043C40.2704 32.7356 40.1845 32.6282 40.1426 32.5015C40.1172 32.4255 40.1155 32.3435 40.1414 32.2557ZM39.0802 31.576C39.0954 31.5021 39.1797 31.4752 39.2472 31.5089C39.3141 31.5424 39.3386 31.6244 39.3377 31.6993C39.3374 31.7205 39.3393 31.7418 39.3434 31.7629C39.3555 31.8234 39.4039 31.8839 39.4645 31.9203C39.4814 31.9316 39.4977 31.9409 39.5135 31.9484C39.6029 31.9909 39.735 31.9846 39.7793 31.8961C39.802 31.8517 39.7978 31.7937 39.7676 31.7541C39.761 31.7455 39.7529 31.7364 39.743 31.7265L39.5977 31.5691C39.5179 31.495 39.4558 31.404 39.416 31.3027C39.4 31.2546 39.3949 31.2036 39.4012 31.1533C39.4075 31.103 39.4249 31.0547 39.4523 31.0121C39.4883 30.9587 39.5387 30.9167 39.5977 30.891C39.7261 30.8357 39.8787 30.8652 39.9995 30.9356C40.0143 30.9443 40.0297 30.9536 40.0457 30.9636C40.1668 31.0484 40.2637 31.1332 40.2879 31.2422C40.306 31.294 40.3122 31.3492 40.3059 31.4037C40.3045 31.4153 40.3026 31.4268 40.3002 31.4381C40.2851 31.5087 40.2023 31.5285 40.1398 31.4923C40.0748 31.4546 40.061 31.3675 40.0516 31.293C40.0509 31.2872 40.0499 31.2818 40.0486 31.2767C40.047 31.2697 40.0442 31.2631 40.0407 31.2569C40.0166 31.2131 39.9811 31.1792 39.9246 31.1453C39.8726 31.1052 39.8086 31.0838 39.743 31.0847C39.7279 31.0866 39.7135 31.0919 39.7009 31.1003C39.6883 31.1087 39.6778 31.12 39.6703 31.1332C39.6639 31.1464 39.6605 31.1609 39.6605 31.1756C39.6605 31.2044 39.6706 31.2337 39.6849 31.2588C39.7078 31.2988 39.7556 31.3552 39.8156 31.4238C39.9125 31.5086 39.973 31.5933 40.0094 31.6418C40.0467 31.7023 40.0654 31.7724 40.0632 31.8434C40.0611 31.9144 40.0381 31.9832 39.9973 32.0414C39.956 32.1041 39.8975 32.1536 39.8287 32.1837C39.7599 32.2138 39.6838 32.2232 39.6098 32.2109C39.5147 32.1924 39.4242 32.1554 39.3434 32.1019C39.2273 32.0376 39.1374 31.9348 39.0891 31.8113C39.0671 31.7341 39.0644 31.6534 39.0802 31.576ZM37.8176 31.0888C37.8176 31.0861 37.8183 31.0835 37.8197 31.0813L38.2509 30.3883C38.3868 30.1698 38.6726 30.1005 38.8935 30.2324L39.2079 30.4201C39.2623 30.4526 39.2794 30.5234 39.2459 30.5771C39.2128 30.6301 39.143 30.6462 39.09 30.6131L38.7243 30.3845C38.6579 30.343 38.5705 30.3623 38.5278 30.428C38.4837 30.4958 38.5044 30.5867 38.5736 30.6288L38.906 30.8312C38.9601 30.8641 38.9769 30.9348 38.9433 30.9885C38.9101 31.0417 38.8401 31.0579 38.7869 31.0248L38.4894 30.8397C38.4063 30.788 38.297 30.8144 38.2467 30.8983C38.197 30.9812 38.2239 31.0887 38.3068 31.1385L38.6698 31.3563C38.7212 31.3871 38.7387 31.4533 38.7093 31.5055C38.6786 31.5601 38.6087 31.5784 38.5552 31.5458L37.8244 31.101C37.8202 31.0984 37.8176 31.0938 37.8176 31.0888ZM36.003 29.5764C35.9487 29.5468 35.9291 29.4786 35.9594 29.4247C35.9892 29.3716 36.0562 29.3525 36.1096 29.3818L36.2578 29.4633C36.3913 29.5368 36.4422 29.7032 36.3726 29.8388L36.3425 29.8974C36.2951 29.9898 36.2089 30.0605 36.105 30.0636C35.9607 30.0679 35.8167 30.0364 35.6863 29.9707C35.578 29.9145 35.4862 29.831 35.4199 29.7285C35.3559 29.636 35.3221 29.5261 35.323 29.4136C35.323 29.2925 35.3594 29.1836 35.4199 29.0746C35.4758 28.9627 35.5591 28.8669 35.6621 28.7961C35.7469 28.7234 35.868 28.6871 35.9891 28.6871C36.0738 28.6871 36.1828 28.7234 36.2918 28.7718C36.4112 28.8279 36.509 28.9215 36.5703 29.0382C36.5992 29.096 36.6152 29.1581 36.6182 29.2245C36.6217 29.3007 36.5439 29.3473 36.4706 29.3263C36.4042 29.3073 36.3675 29.2377 36.3509 29.1707C36.3457 29.1501 36.3381 29.13 36.3281 29.1109C36.3202 29.0962 36.3111 29.0824 36.3009 29.0693C36.2391 28.99 36.1413 28.9403 36.0415 28.9278C35.9913 28.9215 35.9404 28.9262 35.8922 28.9414C35.8074 28.9777 35.7227 29.0625 35.65 29.1836C35.591 29.2949 35.5697 29.4224 35.5895 29.5468C35.6137 29.6437 35.6742 29.7164 35.7832 29.7648L35.9112 29.8042C35.9307 29.8102 35.951 29.8132 35.9714 29.8132H36.0346C36.0735 29.8132 36.109 29.7913 36.1264 29.7565C36.1511 29.7071 36.1323 29.647 36.0838 29.6205L36.003 29.5764ZM27.6938 27.4821C27.6271 27.4721 27.5812 27.41 27.5913 27.3433L27.7336 26.4003C27.7519 26.2791 27.8653 26.1958 27.9865 26.2148L28.0035 26.2174C28.0924 26.2313 28.1609 26.3032 28.1705 26.3927C28.1922 26.5963 28.4719 26.6341 28.5525 26.446C28.5887 26.3616 28.6781 26.3118 28.7687 26.3264L28.7808 26.3284C28.8969 26.3471 28.9767 26.4553 28.9602 26.5717L28.8255 27.5236C28.816 27.5909 28.7535 27.6375 28.6863 27.6274L28.6767 27.6259C28.6155 27.6168 28.5732 27.5599 28.582 27.4986C28.601 27.3675 28.4172 27.3172 28.3667 27.4396L28.3472 27.487C28.3264 27.5375 28.2738 27.5673 28.2197 27.5592L28.1608 27.5504C28.1071 27.5423 28.0656 27.4989 28.06 27.4449L28.0546 27.3925C28.041 27.2605 27.85 27.2568 27.8313 27.3882C27.8224 27.45 27.7649 27.4928 27.7032 27.4835L27.6938 27.4821ZM26.763 27.3552C26.4943 27.3283 26.2978 27.0895 26.3232 26.8207L26.3532 26.502C26.3782 26.2371 26.6126 26.0422 26.8777 26.066L27.2378 26.0983C27.2964 26.1036 27.3404 26.1544 27.3371 26.2132C27.3337 26.2748 27.28 26.3214 27.2186 26.3161L26.7682 26.2772C26.6911 26.2706 26.6231 26.3277 26.6164 26.4049C26.6097 26.4817 26.6662 26.5496 26.743 26.5568L27.1416 26.5944C27.2 26.5999 27.2435 26.6505 27.2403 26.709C27.2368 26.7708 27.1827 26.8174 27.1211 26.8116L26.772 26.7787C26.6725 26.7693 26.5842 26.842 26.5742 26.9414C26.5641 27.0423 26.6386 27.132 26.7396 27.1405L27.159 27.1761C27.22 27.1812 27.2647 27.2357 27.258 27.2965C27.2514 27.3558 27.1983 27.3987 27.139 27.3928L26.763 27.3552Z" fill="#309E3A"/>
<path d="M21.9667 26.4954C21.9667 26.4058 21.98 26.3161 22.0016 26.2413C22.0159 26.1919 22.0424 26.1473 22.0722 26.1055L22.074 26.1031C22.1232 26.0342 22.1845 25.9748 22.2549 25.9279C22.3048 25.8946 22.3583 25.8661 22.417 25.854C22.4799 25.8411 22.5443 25.8369 22.6085 25.8415C22.6926 25.8409 22.7758 25.8578 22.853 25.8912C22.9301 25.9245 22.9994 25.9736 23.0566 26.0352C23.1777 26.1563 23.214 26.3137 23.214 26.5196C23.214 26.7376 23.1414 26.895 23.0324 27.004C22.9717 27.0627 22.8995 27.1082 22.8202 27.1374C22.741 27.1666 22.6565 27.1789 22.5722 27.1735C22.4891 27.1756 22.4064 27.1606 22.3293 27.1293C22.2522 27.0981 22.1824 27.0513 22.1242 26.9919C22.0643 26.9274 22.0192 26.8507 21.9921 26.767C21.9649 26.6834 21.9562 26.5948 21.9667 26.5075V26.4954Z" fill="#309E3A"/>
<path d="M22.227 26.4954C22.2302 26.4954 22.2328 26.498 22.2328 26.5012C22.2334 26.631 22.2538 26.741 22.3113 26.8138C22.3227 26.8282 22.3348 26.8422 22.3467 26.8562C22.4056 26.9255 22.4837 26.9555 22.5719 26.9555C22.6214 26.9565 22.6705 26.9473 22.7163 26.9286C22.7621 26.9098 22.8036 26.8819 22.8383 26.8466C22.8988 26.7739 22.9352 26.6649 22.9473 26.5196C22.9473 26.3622 22.923 26.2532 22.8504 26.1805C22.821 26.1442 22.7842 26.1146 22.7424 26.0937C22.7006 26.0729 22.6549 26.0612 22.6082 26.0594C22.4871 26.0594 22.4023 26.0958 22.3418 26.1684C22.2702 26.24 22.2339 26.3469 22.2212 26.4891C22.2209 26.4925 22.2236 26.4954 22.227 26.4954Z" fill="#F7FFFF"/>
<path d="M23.626 27.1734C23.5523 27.1734 23.4927 27.1133 23.4934 27.0396L23.4992 26.4226C23.502 26.1209 23.7474 25.8777 24.0492 25.8777C24.1945 25.8777 24.2914 25.902 24.352 25.9262C24.4125 25.9504 24.473 25.9867 24.4973 26.0473C24.5215 26.1078 24.5578 26.1684 24.5578 26.2531C24.5578 26.3469 24.5238 26.4179 24.4777 26.4882C24.4746 26.493 24.4711 26.4974 24.467 26.5013C24.4396 26.5272 24.4075 26.5485 24.3695 26.5663C24.3238 26.5877 24.3128 26.6748 24.3488 26.7102C24.3512 26.7125 24.3529 26.7147 24.3547 26.7175L24.4973 26.9313L24.5221 26.9694C24.5792 27.0573 24.5161 27.1734 24.4114 27.1734C24.3667 27.1734 24.3251 27.1509 24.3008 27.1135L24.1582 26.8949C24.1139 26.8274 24.0653 26.7627 24.0129 26.7012C23.9927 26.6797 23.9678 26.6632 23.9402 26.6527C23.9013 26.6388 23.8605 26.6306 23.8191 26.6285C23.7857 26.6285 23.7586 26.6556 23.7586 26.6891V27.0409C23.7586 27.1141 23.6992 27.1734 23.626 27.1734Z" fill="#309E3A"/>
<path d="M23.7588 26.4226H23.9525C24.0046 26.4291 24.0571 26.4314 24.1094 26.4295C24.1649 26.4275 24.216 26.4013 24.2553 26.3621C24.2795 26.3379 24.2916 26.3015 24.2916 26.2652C24.2916 26.2168 24.2795 26.1804 24.2553 26.1562C24.2297 26.1291 24.1954 26.112 24.1584 26.1078H23.9283C23.8414 26.1078 23.7709 26.1783 23.7709 26.2652V26.4105C23.7709 26.4172 23.7655 26.4226 23.7588 26.4226Z" fill="white"/>
<path d="M24.9432 26.4104C24.9578 26.1493 25.1807 25.9491 25.4419 25.9625C25.5239 25.9638 25.6053 25.976 25.6841 25.9988C25.7531 26.0249 25.8152 26.0663 25.8657 26.1199C25.9223 26.187 25.9636 26.2655 25.9868 26.35C26.011 26.4348 26.011 26.5317 26.011 26.6527C26.0147 26.7455 25.9981 26.8379 25.9626 26.9236C25.927 27.0093 25.8733 27.0863 25.8052 27.1492C25.6956 27.2314 25.5537 27.2461 25.4168 27.2461H25.3813C25.1163 27.2395 24.9093 27.0149 24.9241 26.7502L24.9432 26.4104Z" fill="#309E3A"/>
<path d="M25.2116 26.1683L25.1837 26.8209C25.1789 26.9311 25.2596 27.0265 25.369 27.0402H25.4018C25.4836 27.0402 25.564 27.0194 25.6354 26.9797C25.6393 26.9771 25.6429 26.9744 25.6462 26.9716C25.7121 26.9155 25.7146 26.8154 25.7274 26.7299L25.732 26.6995C25.7403 26.6442 25.7429 26.5883 25.7398 26.5325L25.7368 26.4798C25.7339 26.4259 25.7239 26.3628 25.6961 26.3165C25.6749 26.2811 25.6471 26.2596 25.6126 26.2371C25.5901 26.2223 25.565 26.2113 25.5386 26.2047C25.4708 26.1905 25.4019 26.1824 25.3327 26.1804H25.2237C25.217 26.1804 25.2116 26.175 25.2116 26.1683Z" fill="white"/>
<path d="M31.4236 28.2814C31.3567 28.2646 31.3157 28.1971 31.3319 28.13L31.5094 27.3916C31.5624 27.1709 31.7845 27.0352 32.0051 27.0886C32.1625 27.125 32.2594 27.1613 32.3078 27.1855C32.3684 27.2218 32.4289 27.2703 32.4531 27.3429C32.4895 27.4277 32.4895 27.5125 32.4652 27.6093C32.4545 27.6718 32.4276 27.7304 32.3873 27.7792C32.3469 27.8281 32.2945 27.8655 32.2352 27.8879C32.1522 27.9287 32.0553 27.9223 31.9643 27.9056C31.921 27.8976 31.878 27.8876 31.8355 27.8757C31.7408 27.8555 31.647 27.9135 31.623 28.0074L31.576 28.1906C31.5588 28.2576 31.4907 28.2981 31.4236 28.2814Z" fill="#309E3A"/>
<path d="M31.9202 27.2945C31.8527 27.281 31.7867 27.3236 31.7711 27.3906L31.7478 27.4901C31.7297 27.5678 31.781 27.6447 31.8597 27.6578C31.8995 27.6678 31.9352 27.6757 31.966 27.6807C32.0318 27.6914 32.1054 27.6863 32.1566 27.6436C32.1658 27.636 32.1741 27.6275 32.1814 27.6182C32.2078 27.5845 32.2089 27.5391 32.205 27.4965C32.2009 27.4511 32.1904 27.4038 32.1556 27.3744C32.1398 27.361 32.1216 27.3503 32.1019 27.343L31.9202 27.2945Z" fill="white"/>
<path d="M32.6228 28.6569C32.5557 28.6335 32.5203 28.5602 32.5435 28.493L32.7447 27.9125C32.8444 27.6249 33.1586 27.4728 33.446 27.5731C33.4717 27.5803 33.497 27.5886 33.522 27.5979C33.6551 27.6477 33.7764 27.741 33.8214 27.8758C33.8456 27.9484 33.8214 28.009 33.7972 28.0817C33.773 28.1785 33.7124 28.2391 33.6397 28.2754C33.5981 28.2996 33.552 28.3153 33.5041 28.3216C33.4547 28.328 33.4136 28.3902 33.4412 28.4317L33.453 28.4494C33.4564 28.4545 33.459 28.46 33.4608 28.4659L33.5308 28.6992L33.5437 28.7613C33.5648 28.8627 33.4681 28.9488 33.3699 28.916C33.3267 28.9017 33.2938 28.8664 33.2824 28.8224L33.2159 28.566C33.197 28.4878 33.1727 28.4109 33.1433 28.336C33.1329 28.3084 33.1163 28.2835 33.0948 28.2633C33.0581 28.2366 33.0172 28.2161 32.9737 28.2027C32.9462 28.1959 32.918 28.211 32.9085 28.2377L32.7867 28.5786C32.7629 28.6453 32.6896 28.6803 32.6228 28.6569Z" fill="#309E3A"/>
<path d="M33.0399 27.8405C33.0102 27.9266 33.0564 28.0204 33.1428 28.0492L33.1675 28.0574L33.3438 28.1038C33.3795 28.1132 33.4177 28.1244 33.4526 28.1127C33.457 28.1112 33.4613 28.1093 33.4655 28.1069C33.4778 28.0997 33.4865 28.0879 33.4948 28.0763L33.5019 28.0663C33.5286 28.029 33.5429 27.9843 33.5429 27.9385C33.5429 27.9052 33.5371 27.8705 33.5138 27.8466C33.5013 27.8338 33.4866 27.8232 33.4702 27.8152L33.2886 27.7547L33.2519 27.7409C33.1658 27.7086 33.07 27.7536 33.0399 27.8405Z" fill="white"/>
<path d="M34.0158 28.566C34.0279 28.5224 34.0435 28.48 34.0625 28.4392C34.121 28.3134 34.2116 28.2015 34.3306 28.1301C34.3905 28.0971 34.4564 28.0765 34.5244 28.0695C34.6092 28.0695 34.706 28.0695 34.8029 28.1058C34.8851 28.1264 34.962 28.164 35.0288 28.2161C35.0955 28.2683 35.1506 28.3338 35.1904 28.4086C35.2631 28.5539 35.2752 28.7355 35.2025 28.9293C35.1825 29.0164 35.1454 29.0987 35.0935 29.1714C35.0415 29.2442 34.9757 29.3059 34.8998 29.3531C34.8251 29.3903 34.7435 29.4117 34.6601 29.4158C34.5768 29.42 34.4935 29.4069 34.4154 29.3773C34.3332 29.3568 34.2563 29.3192 34.1895 29.2671C34.1228 29.2149 34.0677 29.1494 34.0279 29.0746C33.9567 28.9133 33.9524 28.7305 34.0158 28.566Z" fill="#309E3A"/>
<path d="M34.2694 28.6387C34.2331 28.7719 34.2331 28.8809 34.2694 28.9778C34.3179 29.0747 34.3905 29.1352 34.4874 29.1716C34.5843 29.1958 34.669 29.1837 34.7538 29.1352C34.8386 29.0868 34.9112 28.9899 34.9597 28.8446C34.996 28.6993 34.996 28.5903 34.9597 28.4934C34.9393 28.4487 34.9091 28.4092 34.8714 28.3777C34.8337 28.3463 34.7893 28.3237 34.7417 28.3118C34.6955 28.2968 34.6465 28.2922 34.5983 28.2985C34.5502 28.3048 34.504 28.3218 34.4632 28.3481C34.3784 28.3966 34.3179 28.4934 34.2694 28.6387Z" fill="white"/>
<path d="M30.1134 30.2101C30.0506 30.177 30.0262 30.0996 30.0587 30.0365L30.3451 29.4813C30.4827 29.2145 30.8092 29.1079 31.0777 29.2422C31.1988 29.3148 31.2836 29.3633 31.3199 29.4117C31.3684 29.4723 31.3926 29.5328 31.4047 29.5934C31.433 29.7351 31.3405 29.8877 31.2155 29.9603C31.2026 29.9679 31.1889 29.9747 31.1746 29.9809C31.1394 29.9909 31.1042 29.9968 31.0673 29.9976C31.0138 29.9988 30.9558 30.0743 30.9688 30.1262L31.0051 30.3805L31.01 30.4416C31.0184 30.5466 30.9078 30.6198 30.8144 30.5711C30.7747 30.5503 30.7479 30.5111 30.7431 30.4665L30.7145 30.1988L30.6912 30.0437C30.6825 29.9858 30.6723 29.9241 30.6297 29.884C30.5973 29.8543 30.5606 29.8298 30.5207 29.8113C30.494 29.798 30.4614 29.8088 30.448 29.8355L30.2891 30.1535C30.2567 30.2183 30.1774 30.2438 30.1134 30.2101Z" fill="#309E3A"/>
<path d="M30.6517 29.4535C30.6067 29.5366 30.6394 29.6405 30.724 29.6828L30.7389 29.6903L30.9087 29.7657C30.9404 29.7799 30.9768 29.7927 31.0101 29.7825C31.0344 29.775 31.054 29.758 31.0736 29.7418C31.0918 29.7267 31.107 29.7082 31.1183 29.6872C31.1525 29.623 31.1327 29.5356 31.0699 29.4988C31.0686 29.498 31.0672 29.4973 31.0658 29.4965C31.0145 29.4623 30.962 29.43 30.9084 29.3996L30.8696 29.3815C30.7894 29.3441 30.6939 29.3756 30.6517 29.4535Z" fill="white"/>
<path d="M41.311 32.7316C41.315 32.7316 41.3187 32.7295 41.3207 32.7262C41.3923 32.6083 41.4642 32.5372 41.5596 32.4895C41.6187 32.4501 41.6843 32.4214 41.7533 32.4047C41.8173 32.3923 41.8831 32.3923 41.9471 32.4047C41.9618 32.4068 41.9769 32.4096 41.9922 32.4132C42.1545 32.4517 42.2993 32.5595 42.3947 32.6964C42.4427 32.7651 42.4758 32.8431 42.492 32.9254C42.5096 33.1016 42.4622 33.2782 42.3588 33.4219C42.3128 33.5 42.2516 33.5682 42.1788 33.6222C42.106 33.6763 42.0231 33.7153 41.935 33.7367C41.853 33.7521 41.7687 33.7503 41.6875 33.7316C41.6062 33.7128 41.5297 33.6775 41.4627 33.6277C41.3912 33.5841 41.3294 33.526 41.2815 33.4572C41.2336 33.3884 41.2004 33.3104 41.1842 33.2281C41.1707 33.1415 41.1745 33.053 41.1952 32.9678C41.2156 32.8845 41.2518 32.8058 41.3019 32.7363C41.304 32.7334 41.3074 32.7316 41.311 32.7316Z" fill="#309E3A"/>
<path d="M41.542 32.8648C41.5381 32.8648 41.5344 32.8668 41.5325 32.8702C41.462 32.9895 41.4269 33.1084 41.4388 33.2038C41.4471 33.2528 41.4653 33.2996 41.4924 33.3413C41.5195 33.3829 41.5548 33.4186 41.5962 33.446C41.6346 33.4727 41.6782 33.4908 41.7242 33.4991C41.7701 33.5075 41.8174 33.5059 41.8626 33.4945C41.9595 33.4702 42.0564 33.3976 42.1412 33.2644C42.153 33.2475 42.1638 33.2309 42.1737 33.2146C42.2739 33.0485 42.24 32.8215 42.0927 32.6952C42.008 32.6226 41.9111 32.6226 41.8142 32.6468C41.7186 32.6707 41.6348 32.7418 41.5512 32.86C41.5491 32.863 41.5456 32.8648 41.542 32.8648Z" fill="white"/>
</svg>
