<svg width="62" height="62" viewBox="0 0 62 62" fill="none" xmlns="http://www.w3.org/2000/svg">
<mask id="mask0_558_119" style="mask-type:luminance" maskUnits="userSpaceOnUse" x="0" y="0" width="62" height="62">
<path d="M0 31C0 13.8792 13.8792 0 31 0C48.1208 0 62 13.8792 62 31C62 48.1208 48.1208 62 31 62C13.8792 62 0 48.1208 0 31Z" fill="white"/>
</mask>
<g mask="url(#mask0_558_119)">
<path fill-rule="evenodd" clip-rule="evenodd" d="M0 0H117.8V4.76923H0V0ZM0 9.53846H117.8V14.3077H0V9.53846ZM0 19.0769H117.8V23.8462H0V19.0769ZM0 28.6154H117.8V33.3846H0V28.6154ZM0 38.1538H117.8V42.9231H0V38.1538ZM0 47.6923H117.8V52.4615H0V47.6923ZM0 57.2308H117.8V62H0V57.2308Z" fill="#BD3D44"/>
<path fill-rule="evenodd" clip-rule="evenodd" d="M0 4.76923H117.8V9.53846H0V4.76923ZM0 14.3077H117.8V19.0769H0V14.3077ZM0 23.8461H117.8V28.6154H0V23.8461ZM0 33.3846H117.8V38.1538H0V33.3846ZM0 42.9231H117.8V47.6923H0V42.9231ZM0 52.4615H117.8V57.2308H0V52.4615Z" fill="white"/>
<path fill-rule="evenodd" clip-rule="evenodd" d="M0 0H47.12V33.3846H0V0Z" fill="#192F5D"/>
<path fill-rule="evenodd" clip-rule="evenodd" d="M3.9111 1.43079L4.38802 2.76617H5.72341L4.62648 3.57694L5.05572 4.86463L3.9111 4.05386L2.86187 4.86463L3.2911 3.57694L2.14648 2.76617H3.57725L3.9111 1.43079ZM11.7803 1.43079L12.2096 2.76617H13.5926L12.448 3.57694L12.9249 4.86463L11.7803 4.05386L10.6357 4.86463L11.1126 3.57694L9.96802 2.76617H11.3511L11.7803 1.43079ZM19.6496 1.43079L20.0788 2.76617H21.4619L20.3173 3.57694L20.7942 4.86463L19.6496 4.05386L18.5049 4.86463L18.9819 3.57694L17.8373 2.76617H19.2203L19.6496 1.43079ZM27.4711 1.43079L27.948 2.76617H29.2834L28.1865 3.57694L28.6157 4.86463L27.4711 4.05386L26.3742 4.86463L26.8034 3.57694L25.6588 2.76617H27.0896L27.4711 1.43079ZM35.3403 1.43079L35.7696 2.76617H37.1526L36.008 3.57694L36.4849 4.86463L35.2926 4.05386L34.1957 4.86463L34.6249 3.57694L33.4803 2.76617H34.8634L35.3403 1.43079ZM43.2096 1.43079L43.6388 2.76617H45.0219L43.8773 3.57694L44.3542 4.86463L43.2096 4.05386L42.0649 4.86463L42.5419 3.57694L41.3973 2.76617H42.7803L43.2096 1.43079ZM7.86956 4.76925L8.29879 6.10463H9.68187L8.53725 6.9154L9.01418 8.20309L7.86956 7.39232L6.72495 8.20309L7.20187 6.9154L6.05725 6.10463H7.44033L7.86956 4.76925ZM15.6911 4.76925L16.168 6.10463H17.5034L16.4065 6.9154L16.8357 8.20309L15.6911 7.39232L14.5942 8.20309L15.0234 6.9154L13.8788 6.10463H15.3096L15.6911 4.76925ZM23.5603 4.76925L23.9896 6.10463H25.3726L24.228 6.9154L24.7049 8.20309L23.5603 7.39232L22.4157 8.20309L22.8926 6.9154L21.748 6.10463H23.1311L23.5603 4.76925ZM31.4296 4.76925L31.8588 6.10463H33.2419L32.0973 6.9154L32.5742 8.20309L31.4296 7.39232L30.2849 8.20309L30.7619 6.9154L29.6173 6.10463H31.0003L31.4296 4.76925ZM39.2511 4.76925L39.728 6.10463H41.0157L39.9188 6.9154L40.348 8.20309L39.2034 7.39232L38.1065 8.20309L38.5357 6.9154L37.3911 6.10463H38.8219L39.2511 4.76925ZM3.95879 8.10771L4.34033 9.44309H5.7711L4.62648 10.2539L5.05572 11.5416L3.9111 10.7308L2.86187 11.5416L3.2911 10.2539L2.14648 9.44309H3.57725L3.95879 8.10771ZM11.7803 8.10771L12.2096 9.44309H13.5926L12.4957 10.2539L12.9249 11.5416L11.7803 10.7308L10.6834 11.5416L11.1126 10.2539L9.96802 9.44309H11.3511L11.7803 8.10771ZM19.6496 8.10771L20.0788 9.44309H21.4619L20.3173 10.2539L20.7942 11.5416L19.6496 10.7308L18.5049 11.5416L18.9819 10.2539L17.8373 9.44309H19.2203L19.6496 8.10771ZM27.4711 8.10771L27.948 9.44309H29.2834L28.1865 10.2539L28.6157 11.5416L27.4711 10.7308L26.3742 11.5416L26.8034 10.2539L25.6588 9.44309H27.0896L27.4711 8.10771ZM35.3403 8.10771L35.7696 9.44309H37.1526L36.0557 10.2539L36.4849 11.5416L35.3403 10.7308L34.2434 11.5416L34.6726 10.2539L33.528 9.44309H34.9111L35.3403 8.10771ZM43.2096 8.10771L43.6388 9.44309H45.0219L43.8773 10.2539L44.3542 11.5416L43.2096 10.7308L42.0649 11.5416L42.5419 10.2539L41.3973 9.44309H42.7803L43.2096 8.10771ZM7.86956 11.4462L8.29879 12.7816H9.68187L8.53725 13.5923L9.01418 14.88L7.86956 14.0692L6.72495 14.88L7.20187 13.5923L6.05725 12.7816H7.44033L7.86956 11.4462ZM15.6911 11.4462L16.168 12.7816H17.5034L16.4065 13.5923L16.8357 14.88L15.6911 14.0692L14.5942 14.88L15.0234 13.5923L13.8788 12.7816H15.3096L15.6911 11.4462ZM23.5603 11.4462L23.9896 12.7816H25.3726L24.2757 13.5923L24.7049 14.88L23.5603 14.0692L22.4634 14.88L22.8926 13.5923L21.748 12.7816H23.1311L23.5603 11.4462ZM31.4296 11.4462L31.8588 12.7816H33.2419L32.0973 13.5923L32.5742 14.88L31.4296 14.0692L30.2849 14.88L30.7619 13.5923L29.6173 12.7816H31.0003L31.4296 11.4462ZM39.2511 11.4462L39.728 12.7816H41.0157L39.9188 13.5923L40.348 14.88L39.2034 14.0692L38.1065 14.88L38.5357 13.5923L37.3911 12.7816H38.8219L39.2511 11.4462ZM3.95879 14.7846L4.34033 16.12H5.7711L4.62648 16.9308L5.05572 18.2185L3.9111 17.4077L2.86187 18.2185L3.2911 16.9308L2.14648 16.12H3.57725L3.95879 14.7846ZM11.7803 14.7846L12.2096 16.12H13.5926L12.4957 16.9308L12.9249 18.2185L11.7803 17.4077L10.6834 18.2185L11.1126 16.9308L9.96802 16.12H11.3511L11.7803 14.7846ZM19.6496 14.7846L20.0788 16.12H21.4619L20.3173 16.9308L20.7942 18.2185L19.6496 17.4077L18.5049 18.2185L18.9819 16.9308L17.8373 16.12H19.2203L19.6496 14.7846ZM27.4711 14.7846L27.948 16.12H29.2834L28.1865 16.9308L28.6157 18.2185L27.4711 17.4077L26.3742 18.2185L26.8034 16.9308L25.6588 16.12H27.0896L27.4711 14.7846ZM35.3403 14.7846L35.7696 16.12H37.1526L36.0557 16.9308L36.4849 18.2185L35.3403 17.4077L34.2434 18.2185L34.6726 16.9308L33.528 16.12H34.9111L35.3403 14.7846ZM43.2096 14.7846L43.6388 16.12H45.0219L43.8773 16.9308L44.3542 18.2185L43.2096 17.4077L42.0649 18.2185L42.5419 16.9308L41.3973 16.12H42.7803L43.2096 14.7846ZM7.86956 18.1231L8.29879 19.4585H9.68187L8.53725 20.2692L9.01418 21.5569L7.86956 20.7462L6.72495 21.5569L7.20187 20.2692L6.05725 19.4585H7.44033L7.86956 18.1231ZM15.6911 18.1231L16.168 19.4585H17.5034L16.4065 20.2692L16.8357 21.5569L15.6911 20.7462L14.5942 21.5569L15.0234 20.2692L13.8788 19.4585H15.3096L15.6911 18.1231ZM23.5603 18.1231L23.9896 19.4585H25.3726L24.2757 20.2692L24.7049 21.5569L23.5603 20.7462L22.4634 21.5569L22.8926 20.2692L21.748 19.4585H23.1311L23.5603 18.1231ZM31.4296 18.1231L31.8588 19.4585H33.2419L32.0973 20.2692L32.5742 21.5569L31.4296 20.7462L30.2849 21.5569L30.7619 20.2692L29.6173 19.4585H31.0003L31.4296 18.1231ZM39.2511 18.1231L39.728 19.4585H41.0157L39.9188 20.2692L40.348 21.5569L39.2034 20.7462L38.1065 21.5569L38.5357 20.2692L37.3911 19.4585H38.8219L39.2511 18.1231ZM3.95879 21.4616L4.34033 22.7969H5.7711L4.62648 23.6077L5.05572 24.8954L3.9111 24.0846L2.86187 24.8954L3.2911 23.6077L2.14648 22.7969H3.57725L3.95879 21.4616ZM11.7803 21.4616L12.2096 22.7969H13.5926L12.4957 23.6077L12.9249 24.8954L11.7803 24.0846L10.6834 24.8954L11.1126 23.6077L9.96802 22.7969H11.3511L11.7803 21.4616ZM19.6496 21.4616L20.0788 22.7969H21.4619L20.3173 23.6077L20.7942 24.8954L19.6496 24.0846L18.5049 24.8954L18.9819 23.6077L17.8373 22.7969H19.2203L19.6496 21.4616ZM27.4711 21.4616L27.948 22.7969H29.2834L28.1865 23.6077L28.6157 24.8954L27.4711 24.0846L26.3742 24.8954L26.8034 23.6077L25.6588 22.7969H27.0896L27.4711 21.4616ZM35.3403 21.4616L35.7696 22.7969H37.1526L36.0557 23.6077L36.4849 24.8954L35.3403 24.0846L34.2434 24.8954L34.6726 23.6077L33.528 22.7969H34.9111L35.3403 21.4616ZM43.2096 21.4616L43.6388 22.7969H45.0219L43.8773 23.6077L44.3542 24.8954L43.2096 24.0846L42.0649 24.8954L42.5419 23.6077L41.3973 22.7969H42.7803L43.2096 21.4616ZM7.86956 24.8L8.29879 26.1354H9.68187L8.53725 26.9462L9.01418 28.2339L7.86956 27.4231L6.72495 28.2339L7.20187 26.9462L6.05725 26.1354H7.44033L7.86956 24.8ZM15.6911 24.8L16.168 26.1354H17.5034L16.4065 26.9462L16.8357 28.2339L15.6911 27.4231L14.5942 28.2339L15.0234 26.9462L13.8788 26.1354H15.3096L15.6911 24.8ZM23.5603 24.8L23.9896 26.1354H25.3726L24.2757 26.9462L24.7049 28.2339L23.5603 27.4231L22.4634 28.2339L22.8926 26.9462L21.748 26.1354H23.1311L23.5603 24.8ZM31.4296 24.8L31.8588 26.1354H33.2419L32.0973 26.9462L32.5742 28.2339L31.4296 27.4231L30.2849 28.2339L30.7619 26.9462L29.6173 26.1354H31.0003L31.4296 24.8ZM39.2511 24.8L39.728 26.1354H41.0157L39.9188 26.9462L40.348 28.2339L39.2034 27.4231L38.1065 28.2339L38.5357 26.9462L37.3911 26.1354H38.8219L39.2511 24.8ZM3.95879 28.1385L4.34033 29.4739H5.7711L4.62648 30.2846L5.05572 31.5723L3.9111 30.7616L2.86187 31.5723L3.2911 30.2846L2.14648 29.4739H3.57725L3.95879 28.1385ZM11.7803 28.1385L12.2096 29.4739H13.5926L12.4957 30.2846L12.9249 31.5723L11.7803 30.7616L10.6834 31.5723L11.1126 30.2846L9.96802 29.4739H11.3511L11.7803 28.1385ZM19.6496 28.1385L20.0788 29.4739H21.4619L20.3173 30.2846L20.7942 31.5723L19.6496 30.7616L18.5049 31.5723L18.9819 30.2846L17.8373 29.4739H19.2203L19.6496 28.1385ZM27.4711 28.1385L27.948 29.4739H29.2834L28.1865 30.2846L28.6157 31.5723L27.4711 30.7616L26.3742 31.5723L26.8034 30.2846L25.6588 29.4739H27.0896L27.4711 28.1385ZM35.3403 28.1385L35.7696 29.4739H37.1526L36.0557 30.2846L36.4849 31.5723L35.3403 30.7616L34.2434 31.5723L34.6726 30.2846L33.528 29.4739H34.9111L35.3403 28.1385ZM43.2096 28.1385L43.6388 29.4739H45.0219L43.8773 30.2846L44.3542 31.5723L43.2096 30.7616L42.0649 31.5723L42.5419 30.2846L41.3973 29.4739H42.7803L43.2096 28.1385Z" fill="white"/>
</g>
</svg>
